<svg xmlns="http://www.w3.org/2000/svg" viewBox="0 0 1000 300" width="1000" height="300" role="img" aria-label="Rafael Rolo, Specialist and Tech Lead in Capital Markets. 17 years on the JVM, 798 pull requests authored, 906 code reviews for others, eight sectors served.">
<defs>
<linearGradient id="slight" x1="0" y1="0" x2="1" y2="0"><stop offset="0" stop-color="#0E5468"/><stop offset="0.55" stop-color="#2C7F8C"/><stop offset="1" stop-color="#B08243"/></linearGradient>
<linearGradient id="wlight" x1="0" y1="0" x2="0" y2="1"><stop offset="0" stop-color="#DCE9ED"/><stop offset="1" stop-color="#F7F9FA"/></linearGradient>
<linearGradient id="flight" x1="0" y1="0" x2="0" y2="1"><stop offset="0" stop-color="#FFFFFF" stop-opacity="1"/><stop offset="0.70" stop-color="#FFFFFF" stop-opacity="0.65"/><stop offset="1" stop-color="#FFFFFF" stop-opacity="0"/></linearGradient>
<mask id="mlight"><rect x="0" y="0" width="1000" height="300" fill="url(#flight)"/></mask>
<clipPath id="rlight"><rect x="0" y="0" width="1000" height="300" rx="10"/></clipPath>
</defs>
<style>.fade{opacity:0;animation:f .6s ease forwards}.rain{animation:fall linear infinite}@keyframes f{to{opacity:1}}@keyframes fall{to{transform:translateY(540px)}}@media (prefers-reduced-motion: reduce){.fade{opacity:1;animation:none}.rain{animation:none}}</style>
<g clip-path="url(#rlight)">
<rect x="0" y="0" width="1000" height="300" fill="url(#wlight)"/>
<g mask="url(#mlight)" font-family="ui-monospace, SFMono-Regular, 'Cascadia Mono', Consolas, 'Liberation Mono', monospace" font-size="12" opacity="0.20">
<g class="rain" style="animation-duration:10.4s;animation-delay:-1.6s">
<text x="10" y="-180" fill="#0E5468" opacity="0.0">1</text>
<text x="10" y="-165" fill="#0E5468" opacity="0.017">1</text>
<text x="10" y="-150" fill="#0E5468" opacity="0.055">0</text>
<text x="10" y="-135" fill="#0E5468" opacity="0.11">0</text>
<text x="10" y="-120" fill="#0E5468" opacity="0.179">1</text>
<text x="10" y="-105" fill="#0E5468" opacity="0.262">0</text>
<text x="10" y="-90" fill="#0E5468" opacity="0.357">0</text>
<text x="10" y="-75" fill="#0E5468" opacity="0.464">1</text>
<text x="10" y="-60" fill="#0E5468" opacity="0.582">1</text>
<text x="10" y="-45" fill="#2C7F8C" opacity="0.72">0</text>
<text x="10" y="-30" fill="#2C7F8C" opacity="0.72">0</text>
<text x="10" y="-15" fill="#0B4152" opacity="1.0">0</text>
</g>
<g class="rain" style="animation-duration:11.4s;animation-delay:-0.4s">
<text x="34" y="-210" fill="#0E5468" opacity="0.0">0</text>
<text x="34" y="-195" fill="#0E5468" opacity="0.013">0</text>
<text x="34" y="-180" fill="#0E5468" opacity="0.041">0</text>
<text x="34" y="-165" fill="#0E5468" opacity="0.083">0</text>
<text x="34" y="-150" fill="#0E5468" opacity="0.135">0</text>
<text x="34" y="-135" fill="#0E5468" opacity="0.197">0</text>
<text x="34" y="-120" fill="#0E5468" opacity="0.269">0</text>
<text x="34" y="-105" fill="#0E5468" opacity="0.349">0</text>
<text x="34" y="-90" fill="#0E5468" opacity="0.438">1</text>
<text x="34" y="-75" fill="#0E5468" opacity="0.535">1</text>
<text x="34" y="-60" fill="#0E5468" opacity="0.64">1</text>
<text x="34" y="-45" fill="#2C7F8C" opacity="0.72">0</text>
<text x="34" y="-30" fill="#2C7F8C" opacity="0.72">0</text>
<text x="34" y="-15" fill="#0B4152" opacity="1.0">1</text>
</g>
<g class="rain" style="animation-duration:3.6s;animation-delay:-10.5s">
<text x="58" y="-180" fill="#0E5468" opacity="0.0">1</text>
<text x="58" y="-165" fill="#0E5468" opacity="0.017">1</text>
<text x="58" y="-150" fill="#0E5468" opacity="0.055">0</text>
<text x="58" y="-135" fill="#0E5468" opacity="0.11">1</text>
<text x="58" y="-120" fill="#0E5468" opacity="0.179">1</text>
<text x="58" y="-105" fill="#0E5468" opacity="0.262">0</text>
<text x="58" y="-90" fill="#0E5468" opacity="0.357">1</text>
<text x="58" y="-75" fill="#0E5468" opacity="0.464">0</text>
<text x="58" y="-60" fill="#0E5468" opacity="0.582">0</text>
<text x="58" y="-45" fill="#2C7F8C" opacity="0.72">0</text>
<text x="58" y="-30" fill="#2C7F8C" opacity="0.72">1</text>
<text x="58" y="-15" fill="#0B4152" opacity="1.0">0</text>
</g>
<g class="rain" style="animation-duration:6.7s;animation-delay:-0.5s">
<text x="82" y="-135" fill="#0E5468" opacity="0.0">0</text>
<text x="82" y="-120" fill="#0E5468" opacity="0.029">0</text>
<text x="82" y="-105" fill="#0E5468" opacity="0.095">0</text>
<text x="82" y="-90" fill="#0E5468" opacity="0.189">0</text>
<text x="82" y="-75" fill="#0E5468" opacity="0.308">1</text>
<text x="82" y="-60" fill="#0E5468" opacity="0.45">1</text>
<text x="82" y="-45" fill="#2C7F8C" opacity="0.72">1</text>
<text x="82" y="-30" fill="#2C7F8C" opacity="0.72">1</text>
<text x="82" y="-15" fill="#0B4152" opacity="1.0">0</text>
</g>
<g class="rain" style="animation-duration:8.6s;animation-delay:-2.5s">
<text x="106" y="-210" fill="#0E5468" opacity="0.0">1</text>
<text x="106" y="-195" fill="#0E5468" opacity="0.013">1</text>
<text x="106" y="-180" fill="#0E5468" opacity="0.041">0</text>
<text x="106" y="-165" fill="#0E5468" opacity="0.083">1</text>
<text x="106" y="-150" fill="#0E5468" opacity="0.135">1</text>
<text x="106" y="-135" fill="#0E5468" opacity="0.197">0</text>
<text x="106" y="-120" fill="#0E5468" opacity="0.269">1</text>
<text x="106" y="-105" fill="#0E5468" opacity="0.349">0</text>
<text x="106" y="-90" fill="#0E5468" opacity="0.438">0</text>
<text x="106" y="-75" fill="#0E5468" opacity="0.535">0</text>
<text x="106" y="-60" fill="#0E5468" opacity="0.64">0</text>
<text x="106" y="-45" fill="#2C7F8C" opacity="0.72">0</text>
<text x="106" y="-30" fill="#2C7F8C" opacity="0.72">0</text>
<text x="106" y="-15" fill="#0B4152" opacity="1.0">1</text>
</g>
<g class="rain" style="animation-duration:5.0s;animation-delay:-5.1s">
<text x="130" y="-180" fill="#0E5468" opacity="0.0">1</text>
<text x="130" y="-165" fill="#0E5468" opacity="0.017">0</text>
<text x="130" y="-150" fill="#0E5468" opacity="0.055">0</text>
<text x="130" y="-135" fill="#0E5468" opacity="0.11">1</text>
<text x="130" y="-120" fill="#0E5468" opacity="0.179">1</text>
<text x="130" y="-105" fill="#0E5468" opacity="0.262">0</text>
<text x="130" y="-90" fill="#0E5468" opacity="0.357">1</text>
<text x="130" y="-75" fill="#0E5468" opacity="0.464">1</text>
<text x="130" y="-60" fill="#0E5468" opacity="0.582">0</text>
<text x="130" y="-45" fill="#2C7F8C" opacity="0.72">0</text>
<text x="130" y="-30" fill="#2C7F8C" opacity="0.72">1</text>
<text x="130" y="-15" fill="#0B4152" opacity="1.0">1</text>
</g>
<g class="rain" style="animation-duration:5.3s;animation-delay:-7.0s">
<text x="154" y="-75" fill="#0E5468" opacity="0.0">0</text>
<text x="154" y="-60" fill="#0E5468" opacity="0.095">0</text>
<text x="154" y="-45" fill="#2C7F8C" opacity="0.72">0</text>
<text x="154" y="-30" fill="#2C7F8C" opacity="0.72">0</text>
<text x="154" y="-15" fill="#0B4152" opacity="1.0">1</text>
</g>
<g class="rain" style="animation-duration:3.7s;animation-delay:-4.5s">
<text x="178" y="-135" fill="#0E5468" opacity="0.0">1</text>
<text x="178" y="-120" fill="#0E5468" opacity="0.029">1</text>
<text x="178" y="-105" fill="#0E5468" opacity="0.095">0</text>
<text x="178" y="-90" fill="#0E5468" opacity="0.189">0</text>
<text x="178" y="-75" fill="#0E5468" opacity="0.308">0</text>
<text x="178" y="-60" fill="#0E5468" opacity="0.45">0</text>
<text x="178" y="-45" fill="#2C7F8C" opacity="0.72">0</text>
<text x="178" y="-30" fill="#2C7F8C" opacity="0.72">0</text>
<text x="178" y="-15" fill="#0B4152" opacity="1.0">1</text>
</g>
<g class="rain" style="animation-duration:8.5s;animation-delay:-10.0s">
<text x="202" y="-150" fill="#0E5468" opacity="0.0">1</text>
<text x="202" y="-135" fill="#0E5468" opacity="0.024">0</text>
<text x="202" y="-120" fill="#0E5468" opacity="0.078">1</text>
<text x="202" y="-105" fill="#0E5468" opacity="0.154">0</text>
<text x="202" y="-90" fill="#0E5468" opacity="0.252">0</text>
<text x="202" y="-75" fill="#0E5468" opacity="0.368">1</text>
<text x="202" y="-60" fill="#0E5468" opacity="0.502">0</text>
<text x="202" y="-45" fill="#2C7F8C" opacity="0.72">0</text>
<text x="202" y="-30" fill="#2C7F8C" opacity="0.72">0</text>
<text x="202" y="-15" fill="#0B4152" opacity="1.0">0</text>
</g>
<g class="rain" style="animation-duration:8.6s;animation-delay:-5.1s">
<text x="226" y="-240" fill="#0E5468" opacity="0.0">1</text>
<text x="226" y="-225" fill="#0E5468" opacity="0.01">1</text>
<text x="226" y="-210" fill="#0E5468" opacity="0.033">0</text>
<text x="226" y="-195" fill="#0E5468" opacity="0.065">1</text>
<text x="226" y="-180" fill="#0E5468" opacity="0.106">0</text>
<text x="226" y="-165" fill="#0E5468" opacity="0.154">0</text>
<text x="226" y="-150" fill="#0E5468" opacity="0.211">0</text>
<text x="226" y="-135" fill="#0E5468" opacity="0.274">0</text>
<text x="226" y="-120" fill="#0E5468" opacity="0.343">1</text>
<text x="226" y="-105" fill="#0E5468" opacity="0.42">0</text>
<text x="226" y="-90" fill="#0E5468" opacity="0.502">1</text>
<text x="226" y="-75" fill="#0E5468" opacity="0.59">1</text>
<text x="226" y="-60" fill="#0E5468" opacity="0.684">1</text>
<text x="226" y="-45" fill="#2C7F8C" opacity="0.72">1</text>
<text x="226" y="-30" fill="#2C7F8C" opacity="0.72">1</text>
<text x="226" y="-15" fill="#0B4152" opacity="1.0">0</text>
</g>
<g class="rain" style="animation-duration:11.3s;animation-delay:-10.0s">
<text x="250" y="-240" fill="#0E5468" opacity="0.0">1</text>
<text x="250" y="-225" fill="#0E5468" opacity="0.01">0</text>
<text x="250" y="-210" fill="#0E5468" opacity="0.033">1</text>
<text x="250" y="-195" fill="#0E5468" opacity="0.065">0</text>
<text x="250" y="-180" fill="#0E5468" opacity="0.106">0</text>
<text x="250" y="-165" fill="#0E5468" opacity="0.154">0</text>
<text x="250" y="-150" fill="#0E5468" opacity="0.211">0</text>
<text x="250" y="-135" fill="#0E5468" opacity="0.274">1</text>
<text x="250" y="-120" fill="#0E5468" opacity="0.343">1</text>
<text x="250" y="-105" fill="#0E5468" opacity="0.42">1</text>
<text x="250" y="-90" fill="#0E5468" opacity="0.502">0</text>
<text x="250" y="-75" fill="#0E5468" opacity="0.59">0</text>
<text x="250" y="-60" fill="#0E5468" opacity="0.684">0</text>
<text x="250" y="-45" fill="#2C7F8C" opacity="0.72">0</text>
<text x="250" y="-30" fill="#2C7F8C" opacity="0.72">1</text>
<text x="250" y="-15" fill="#0B4152" opacity="1.0">1</text>
</g>
<g class="rain" style="animation-duration:8.1s;animation-delay:-10.0s">
<text x="274" y="-195" fill="#0E5468" opacity="0.0">1</text>
<text x="274" y="-180" fill="#0E5468" opacity="0.015">0</text>
<text x="274" y="-165" fill="#0E5468" opacity="0.048">1</text>
<text x="274" y="-150" fill="#0E5468" opacity="0.095">1</text>
<text x="274" y="-135" fill="#0E5468" opacity="0.154">0</text>
<text x="274" y="-120" fill="#0E5468" opacity="0.226">0</text>
<text x="274" y="-105" fill="#0E5468" opacity="0.308">0</text>
<text x="274" y="-90" fill="#0E5468" opacity="0.4">1</text>
<text x="274" y="-75" fill="#0E5468" opacity="0.502">1</text>
<text x="274" y="-60" fill="#0E5468" opacity="0.613">1</text>
<text x="274" y="-45" fill="#2C7F8C" opacity="0.72">0</text>
<text x="274" y="-30" fill="#2C7F8C" opacity="0.72">0</text>
<text x="274" y="-15" fill="#0B4152" opacity="1.0">0</text>
</g>
<g class="rain" style="animation-duration:4.1s;animation-delay:-7.9s">
<text x="298" y="-180" fill="#0E5468" opacity="0.0">0</text>
<text x="298" y="-165" fill="#0E5468" opacity="0.017">0</text>
<text x="298" y="-150" fill="#0E5468" opacity="0.055">0</text>
<text x="298" y="-135" fill="#0E5468" opacity="0.11">1</text>
<text x="298" y="-120" fill="#0E5468" opacity="0.179">1</text>
<text x="298" y="-105" fill="#0E5468" opacity="0.262">0</text>
<text x="298" y="-90" fill="#0E5468" opacity="0.357">0</text>
<text x="298" y="-75" fill="#0E5468" opacity="0.464">1</text>
<text x="298" y="-60" fill="#0E5468" opacity="0.582">1</text>
<text x="298" y="-45" fill="#2C7F8C" opacity="0.72">0</text>
<text x="298" y="-30" fill="#2C7F8C" opacity="0.72">1</text>
<text x="298" y="-15" fill="#0B4152" opacity="1.0">0</text>
</g>
<g class="rain" style="animation-duration:11.1s;animation-delay:-11.2s">
<text x="322" y="-165" fill="#0E5468" opacity="0.0">1</text>
<text x="322" y="-150" fill="#0E5468" opacity="0.02">0</text>
<text x="322" y="-135" fill="#0E5468" opacity="0.065">1</text>
<text x="322" y="-120" fill="#0E5468" opacity="0.129">1</text>
<text x="322" y="-105" fill="#0E5468" opacity="0.211">0</text>
<text x="322" y="-90" fill="#0E5468" opacity="0.308">0</text>
<text x="322" y="-75" fill="#0E5468" opacity="0.42">0</text>
<text x="322" y="-60" fill="#0E5468" opacity="0.545">0</text>
<text x="322" y="-45" fill="#2C7F8C" opacity="0.72">0</text>
<text x="322" y="-30" fill="#2C7F8C" opacity="0.72">1</text>
<text x="322" y="-15" fill="#0B4152" opacity="1.0">1</text>
</g>
<g class="rain" style="animation-duration:6.2s;animation-delay:-0.8s">
<text x="346" y="-240" fill="#0E5468" opacity="0.0">1</text>
<text x="346" y="-225" fill="#0E5468" opacity="0.01">1</text>
<text x="346" y="-210" fill="#0E5468" opacity="0.033">1</text>
<text x="346" y="-195" fill="#0E5468" opacity="0.065">0</text>
<text x="346" y="-180" fill="#0E5468" opacity="0.106">0</text>
<text x="346" y="-165" fill="#0E5468" opacity="0.154">1</text>
<text x="346" y="-150" fill="#0E5468" opacity="0.211">0</text>
<text x="346" y="-135" fill="#0E5468" opacity="0.274">1</text>
<text x="346" y="-120" fill="#0E5468" opacity="0.343">0</text>
<text x="346" y="-105" fill="#0E5468" opacity="0.42">0</text>
<text x="346" y="-90" fill="#0E5468" opacity="0.502">0</text>
<text x="346" y="-75" fill="#0E5468" opacity="0.59">1</text>
<text x="346" y="-60" fill="#0E5468" opacity="0.684">1</text>
<text x="346" y="-45" fill="#2C7F8C" opacity="0.72">1</text>
<text x="346" y="-30" fill="#2C7F8C" opacity="0.72">0</text>
<text x="346" y="-15" fill="#0B4152" opacity="1.0">1</text>
</g>
<g class="rain" style="animation-duration:4.7s;animation-delay:-4.5s">
<text x="370" y="-135" fill="#0E5468" opacity="0.0">0</text>
<text x="370" y="-120" fill="#0E5468" opacity="0.029">1</text>
<text x="370" y="-105" fill="#0E5468" opacity="0.095">1</text>
<text x="370" y="-90" fill="#0E5468" opacity="0.189">1</text>
<text x="370" y="-75" fill="#0E5468" opacity="0.308">0</text>
<text x="370" y="-60" fill="#0E5468" opacity="0.45">1</text>
<text x="370" y="-45" fill="#2C7F8C" opacity="0.72">1</text>
<text x="370" y="-30" fill="#2C7F8C" opacity="0.72">1</text>
<text x="370" y="-15" fill="#0B4152" opacity="1.0">0</text>
</g>
<g class="rain" style="animation-duration:7.0s;animation-delay:-2.2s">
<text x="394" y="-225" fill="#0E5468" opacity="0.0">0</text>
<text x="394" y="-210" fill="#0E5468" opacity="0.011">0</text>
<text x="394" y="-195" fill="#0E5468" opacity="0.037">1</text>
<text x="394" y="-180" fill="#0E5468" opacity="0.073">0</text>
<text x="394" y="-165" fill="#0E5468" opacity="0.119">1</text>
<text x="394" y="-150" fill="#0E5468" opacity="0.174">0</text>
<text x="394" y="-135" fill="#0E5468" opacity="0.237">0</text>
<text x="394" y="-120" fill="#0E5468" opacity="0.308">0</text>
<text x="394" y="-105" fill="#0E5468" opacity="0.386">1</text>
<text x="394" y="-90" fill="#0E5468" opacity="0.472">1</text>
<text x="394" y="-75" fill="#0E5468" opacity="0.564">0</text>
<text x="394" y="-60" fill="#0E5468" opacity="0.664">0</text>
<text x="394" y="-45" fill="#2C7F8C" opacity="0.72">1</text>
<text x="394" y="-30" fill="#2C7F8C" opacity="0.72">0</text>
<text x="394" y="-15" fill="#0B4152" opacity="1.0">0</text>
</g>
<g class="rain" style="animation-duration:7.3s;animation-delay:-0.9s">
<text x="418" y="-180" fill="#0E5468" opacity="0.0">1</text>
<text x="418" y="-165" fill="#0E5468" opacity="0.017">1</text>
<text x="418" y="-150" fill="#0E5468" opacity="0.055">1</text>
<text x="418" y="-135" fill="#0E5468" opacity="0.11">1</text>
<text x="418" y="-120" fill="#0E5468" opacity="0.179">1</text>
<text x="418" y="-105" fill="#0E5468" opacity="0.262">1</text>
<text x="418" y="-90" fill="#0E5468" opacity="0.357">0</text>
<text x="418" y="-75" fill="#0E5468" opacity="0.464">0</text>
<text x="418" y="-60" fill="#0E5468" opacity="0.582">1</text>
<text x="418" y="-45" fill="#2C7F8C" opacity="0.72">0</text>
<text x="418" y="-30" fill="#2C7F8C" opacity="0.72">1</text>
<text x="418" y="-15" fill="#0B4152" opacity="1.0">1</text>
</g>
<g class="rain" style="animation-duration:8.7s;animation-delay:-5.0s">
<text x="442" y="-135" fill="#0E5468" opacity="0.0">0</text>
<text x="442" y="-120" fill="#0E5468" opacity="0.029">1</text>
<text x="442" y="-105" fill="#0E5468" opacity="0.095">1</text>
<text x="442" y="-90" fill="#0E5468" opacity="0.189">0</text>
<text x="442" y="-75" fill="#0E5468" opacity="0.308">0</text>
<text x="442" y="-60" fill="#0E5468" opacity="0.45">1</text>
<text x="442" y="-45" fill="#2C7F8C" opacity="0.72">0</text>
<text x="442" y="-30" fill="#2C7F8C" opacity="0.72">0</text>
<text x="442" y="-15" fill="#0B4152" opacity="1.0">0</text>
</g>
<g class="rain" style="animation-duration:4.5s;animation-delay:-10.2s">
<text x="466" y="-225" fill="#0E5468" opacity="0.0">1</text>
<text x="466" y="-210" fill="#0E5468" opacity="0.011">0</text>
<text x="466" y="-195" fill="#0E5468" opacity="0.037">0</text>
<text x="466" y="-180" fill="#0E5468" opacity="0.073">0</text>
<text x="466" y="-165" fill="#0E5468" opacity="0.119">1</text>
<text x="466" y="-150" fill="#0E5468" opacity="0.174">1</text>
<text x="466" y="-135" fill="#0E5468" opacity="0.237">0</text>
<text x="466" y="-120" fill="#0E5468" opacity="0.308">0</text>
<text x="466" y="-105" fill="#0E5468" opacity="0.386">1</text>
<text x="466" y="-90" fill="#0E5468" opacity="0.472">0</text>
<text x="466" y="-75" fill="#0E5468" opacity="0.564">0</text>
<text x="466" y="-60" fill="#0E5468" opacity="0.664">0</text>
<text x="466" y="-45" fill="#2C7F8C" opacity="0.72">1</text>
<text x="466" y="-30" fill="#2C7F8C" opacity="0.72">1</text>
<text x="466" y="-15" fill="#0B4152" opacity="1.0">0</text>
</g>
<g class="rain" style="animation-duration:10.3s;animation-delay:-3.5s">
<text x="490" y="-165" fill="#0E5468" opacity="0.0">0</text>
<text x="490" y="-150" fill="#0E5468" opacity="0.02">0</text>
<text x="490" y="-135" fill="#0E5468" opacity="0.065">1</text>
<text x="490" y="-120" fill="#0E5468" opacity="0.129">1</text>
<text x="490" y="-105" fill="#0E5468" opacity="0.211">0</text>
<text x="490" y="-90" fill="#0E5468" opacity="0.308">1</text>
<text x="490" y="-75" fill="#0E5468" opacity="0.42">1</text>
<text x="490" y="-60" fill="#0E5468" opacity="0.545">0</text>
<text x="490" y="-45" fill="#2C7F8C" opacity="0.72">0</text>
<text x="490" y="-30" fill="#2C7F8C" opacity="0.72">1</text>
<text x="490" y="-15" fill="#0B4152" opacity="1.0">1</text>
</g>
<g class="rain" style="animation-duration:6.2s;animation-delay:-0.2s">
<text x="514" y="-180" fill="#0E5468" opacity="0.0">0</text>
<text x="514" y="-165" fill="#0E5468" opacity="0.017">0</text>
<text x="514" y="-150" fill="#0E5468" opacity="0.055">0</text>
<text x="514" y="-135" fill="#0E5468" opacity="0.11">0</text>
<text x="514" y="-120" fill="#0E5468" opacity="0.179">1</text>
<text x="514" y="-105" fill="#0E5468" opacity="0.262">0</text>
<text x="514" y="-90" fill="#0E5468" opacity="0.357">1</text>
<text x="514" y="-75" fill="#0E5468" opacity="0.464">1</text>
<text x="514" y="-60" fill="#0E5468" opacity="0.582">1</text>
<text x="514" y="-45" fill="#2C7F8C" opacity="0.72">0</text>
<text x="514" y="-30" fill="#2C7F8C" opacity="0.72">1</text>
<text x="514" y="-15" fill="#0B4152" opacity="1.0">0</text>
</g>
<g class="rain" style="animation-duration:7.1s;animation-delay:-5.2s">
<text x="538" y="-75" fill="#0E5468" opacity="0.0">1</text>
<text x="538" y="-60" fill="#0E5468" opacity="0.095">1</text>
<text x="538" y="-45" fill="#2C7F8C" opacity="0.72">0</text>
<text x="538" y="-30" fill="#2C7F8C" opacity="0.72">0</text>
<text x="538" y="-15" fill="#0B4152" opacity="1.0">0</text>
</g>
<g class="rain" style="animation-duration:9.9s;animation-delay:-9.5s">
<text x="562" y="-165" fill="#0E5468" opacity="0.0">1</text>
<text x="562" y="-150" fill="#0E5468" opacity="0.02">0</text>
<text x="562" y="-135" fill="#0E5468" opacity="0.065">1</text>
<text x="562" y="-120" fill="#0E5468" opacity="0.129">0</text>
<text x="562" y="-105" fill="#0E5468" opacity="0.211">1</text>
<text x="562" y="-90" fill="#0E5468" opacity="0.308">1</text>
<text x="562" y="-75" fill="#0E5468" opacity="0.42">0</text>
<text x="562" y="-60" fill="#0E5468" opacity="0.545">0</text>
<text x="562" y="-45" fill="#2C7F8C" opacity="0.72">1</text>
<text x="562" y="-30" fill="#2C7F8C" opacity="0.72">1</text>
<text x="562" y="-15" fill="#0B4152" opacity="1.0">0</text>
</g>
<g class="rain" style="animation-duration:7.7s;animation-delay:-1.1s">
<text x="586" y="-195" fill="#0E5468" opacity="0.0">1</text>
<text x="586" y="-180" fill="#0E5468" opacity="0.015">1</text>
<text x="586" y="-165" fill="#0E5468" opacity="0.048">1</text>
<text x="586" y="-150" fill="#0E5468" opacity="0.095">0</text>
<text x="586" y="-135" fill="#0E5468" opacity="0.154">1</text>
<text x="586" y="-120" fill="#0E5468" opacity="0.226">0</text>
<text x="586" y="-105" fill="#0E5468" opacity="0.308">1</text>
<text x="586" y="-90" fill="#0E5468" opacity="0.4">1</text>
<text x="586" y="-75" fill="#0E5468" opacity="0.502">0</text>
<text x="586" y="-60" fill="#0E5468" opacity="0.613">1</text>
<text x="586" y="-45" fill="#2C7F8C" opacity="0.72">0</text>
<text x="586" y="-30" fill="#2C7F8C" opacity="0.72">0</text>
<text x="586" y="-15" fill="#0B4152" opacity="1.0">1</text>
</g>
<g class="rain" style="animation-duration:7.9s;animation-delay:-11.0s">
<text x="610" y="-75" fill="#0E5468" opacity="0.0">1</text>
<text x="610" y="-60" fill="#0E5468" opacity="0.095">0</text>
<text x="610" y="-45" fill="#2C7F8C" opacity="0.72">1</text>
<text x="610" y="-30" fill="#2C7F8C" opacity="0.72">0</text>
<text x="610" y="-15" fill="#0B4152" opacity="1.0">0</text>
</g>
<g class="rain" style="animation-duration:11.0s;animation-delay:-6.2s">
<text x="634" y="-90" fill="#0E5468" opacity="0.0">1</text>
<text x="634" y="-75" fill="#0E5468" opacity="0.065">1</text>
<text x="634" y="-60" fill="#0E5468" opacity="0.211">0</text>
<text x="634" y="-45" fill="#2C7F8C" opacity="0.72">1</text>
<text x="634" y="-30" fill="#2C7F8C" opacity="0.72">1</text>
<text x="634" y="-15" fill="#0B4152" opacity="1.0">0</text>
</g>
<g class="rain" style="animation-duration:7.0s;animation-delay:-2.1s">
<text x="658" y="-150" fill="#0E5468" opacity="0.0">1</text>
<text x="658" y="-135" fill="#0E5468" opacity="0.024">1</text>
<text x="658" y="-120" fill="#0E5468" opacity="0.078">0</text>
<text x="658" y="-105" fill="#0E5468" opacity="0.154">0</text>
<text x="658" y="-90" fill="#0E5468" opacity="0.252">1</text>
<text x="658" y="-75" fill="#0E5468" opacity="0.368">0</text>
<text x="658" y="-60" fill="#0E5468" opacity="0.502">1</text>
<text x="658" y="-45" fill="#2C7F8C" opacity="0.72">0</text>
<text x="658" y="-30" fill="#2C7F8C" opacity="0.72">0</text>
<text x="658" y="-15" fill="#0B4152" opacity="1.0">0</text>
</g>
<g class="rain" style="animation-duration:4.8s;animation-delay:-11.4s">
<text x="682" y="-120" fill="#0E5468" opacity="0.0">1</text>
<text x="682" y="-105" fill="#0E5468" opacity="0.037">1</text>
<text x="682" y="-90" fill="#0E5468" opacity="0.119">1</text>
<text x="682" y="-75" fill="#0E5468" opacity="0.237">0</text>
<text x="682" y="-60" fill="#0E5468" opacity="0.386">1</text>
<text x="682" y="-45" fill="#2C7F8C" opacity="0.72">0</text>
<text x="682" y="-30" fill="#2C7F8C" opacity="0.72">1</text>
<text x="682" y="-15" fill="#0B4152" opacity="1.0">0</text>
</g>
<g class="rain" style="animation-duration:8.5s;animation-delay:-3.2s">
<text x="706" y="-195" fill="#0E5468" opacity="0.0">1</text>
<text x="706" y="-180" fill="#0E5468" opacity="0.015">0</text>
<text x="706" y="-165" fill="#0E5468" opacity="0.048">1</text>
<text x="706" y="-150" fill="#0E5468" opacity="0.095">1</text>
<text x="706" y="-135" fill="#0E5468" opacity="0.154">0</text>
<text x="706" y="-120" fill="#0E5468" opacity="0.226">0</text>
<text x="706" y="-105" fill="#0E5468" opacity="0.308">0</text>
<text x="706" y="-90" fill="#0E5468" opacity="0.4">0</text>
<text x="706" y="-75" fill="#0E5468" opacity="0.502">0</text>
<text x="706" y="-60" fill="#0E5468" opacity="0.613">0</text>
<text x="706" y="-45" fill="#2C7F8C" opacity="0.72">1</text>
<text x="706" y="-30" fill="#2C7F8C" opacity="0.72">0</text>
<text x="706" y="-15" fill="#0B4152" opacity="1.0">1</text>
</g>
<g class="rain" style="animation-duration:6.1s;animation-delay:-0.9s">
<text x="730" y="-210" fill="#0E5468" opacity="0.0">0</text>
<text x="730" y="-195" fill="#0E5468" opacity="0.013">0</text>
<text x="730" y="-180" fill="#0E5468" opacity="0.041">0</text>
<text x="730" y="-165" fill="#0E5468" opacity="0.083">0</text>
<text x="730" y="-150" fill="#0E5468" opacity="0.135">0</text>
<text x="730" y="-135" fill="#0E5468" opacity="0.197">0</text>
<text x="730" y="-120" fill="#0E5468" opacity="0.269">0</text>
<text x="730" y="-105" fill="#0E5468" opacity="0.349">1</text>
<text x="730" y="-90" fill="#0E5468" opacity="0.438">1</text>
<text x="730" y="-75" fill="#0E5468" opacity="0.535">0</text>
<text x="730" y="-60" fill="#0E5468" opacity="0.64">1</text>
<text x="730" y="-45" fill="#2C7F8C" opacity="0.72">1</text>
<text x="730" y="-30" fill="#2C7F8C" opacity="0.72">0</text>
<text x="730" y="-15" fill="#0B4152" opacity="1.0">0</text>
</g>
<g class="rain" style="animation-duration:8.6s;animation-delay:-2.3s">
<text x="754" y="-165" fill="#0E5468" opacity="0.0">0</text>
<text x="754" y="-150" fill="#0E5468" opacity="0.02">0</text>
<text x="754" y="-135" fill="#0E5468" opacity="0.065">1</text>
<text x="754" y="-120" fill="#0E5468" opacity="0.129">1</text>
<text x="754" y="-105" fill="#0E5468" opacity="0.211">0</text>
<text x="754" y="-90" fill="#0E5468" opacity="0.308">1</text>
<text x="754" y="-75" fill="#0E5468" opacity="0.42">0</text>
<text x="754" y="-60" fill="#0E5468" opacity="0.545">0</text>
<text x="754" y="-45" fill="#2C7F8C" opacity="0.72">1</text>
<text x="754" y="-30" fill="#2C7F8C" opacity="0.72">0</text>
<text x="754" y="-15" fill="#0B4152" opacity="1.0">0</text>
</g>
<g class="rain" style="animation-duration:9.6s;animation-delay:-4.4s">
<text x="778" y="-75" fill="#0E5468" opacity="0.0">1</text>
<text x="778" y="-60" fill="#0E5468" opacity="0.095">0</text>
<text x="778" y="-45" fill="#2C7F8C" opacity="0.72">0</text>
<text x="778" y="-30" fill="#2C7F8C" opacity="0.72">0</text>
<text x="778" y="-15" fill="#0B4152" opacity="1.0">0</text>
</g>
<g class="rain" style="animation-duration:5.0s;animation-delay:-9.7s">
<text x="802" y="-120" fill="#0E5468" opacity="0.0">1</text>
<text x="802" y="-105" fill="#0E5468" opacity="0.037">0</text>
<text x="802" y="-90" fill="#0E5468" opacity="0.119">0</text>
<text x="802" y="-75" fill="#0E5468" opacity="0.237">0</text>
<text x="802" y="-60" fill="#0E5468" opacity="0.386">1</text>
<text x="802" y="-45" fill="#2C7F8C" opacity="0.72">0</text>
<text x="802" y="-30" fill="#2C7F8C" opacity="0.72">0</text>
<text x="802" y="-15" fill="#0B4152" opacity="1.0">1</text>
</g>
<g class="rain" style="animation-duration:7.3s;animation-delay:-5.6s">
<text x="826" y="-165" fill="#0E5468" opacity="0.0">1</text>
<text x="826" y="-150" fill="#0E5468" opacity="0.02">0</text>
<text x="826" y="-135" fill="#0E5468" opacity="0.065">1</text>
<text x="826" y="-120" fill="#0E5468" opacity="0.129">0</text>
<text x="826" y="-105" fill="#0E5468" opacity="0.211">0</text>
<text x="826" y="-90" fill="#0E5468" opacity="0.308">0</text>
<text x="826" y="-75" fill="#0E5468" opacity="0.42">0</text>
<text x="826" y="-60" fill="#0E5468" opacity="0.545">1</text>
<text x="826" y="-45" fill="#2C7F8C" opacity="0.72">1</text>
<text x="826" y="-30" fill="#2C7F8C" opacity="0.72">1</text>
<text x="826" y="-15" fill="#0B4152" opacity="1.0">1</text>
</g>
<g class="rain" style="animation-duration:10.9s;animation-delay:-4.5s">
<text x="850" y="-165" fill="#0E5468" opacity="0.0">0</text>
<text x="850" y="-150" fill="#0E5468" opacity="0.02">0</text>
<text x="850" y="-135" fill="#0E5468" opacity="0.065">1</text>
<text x="850" y="-120" fill="#0E5468" opacity="0.129">0</text>
<text x="850" y="-105" fill="#0E5468" opacity="0.211">1</text>
<text x="850" y="-90" fill="#0E5468" opacity="0.308">0</text>
<text x="850" y="-75" fill="#0E5468" opacity="0.42">1</text>
<text x="850" y="-60" fill="#0E5468" opacity="0.545">1</text>
<text x="850" y="-45" fill="#2C7F8C" opacity="0.72">1</text>
<text x="850" y="-30" fill="#2C7F8C" opacity="0.72">0</text>
<text x="850" y="-15" fill="#0B4152" opacity="1.0">0</text>
</g>
<g class="rain" style="animation-duration:4.7s;animation-delay:-7.7s">
<text x="874" y="-165" fill="#0E5468" opacity="0.0">1</text>
<text x="874" y="-150" fill="#0E5468" opacity="0.02">1</text>
<text x="874" y="-135" fill="#0E5468" opacity="0.065">0</text>
<text x="874" y="-120" fill="#0E5468" opacity="0.129">1</text>
<text x="874" y="-105" fill="#0E5468" opacity="0.211">0</text>
<text x="874" y="-90" fill="#0E5468" opacity="0.308">0</text>
<text x="874" y="-75" fill="#0E5468" opacity="0.42">0</text>
<text x="874" y="-60" fill="#0E5468" opacity="0.545">1</text>
<text x="874" y="-45" fill="#2C7F8C" opacity="0.72">1</text>
<text x="874" y="-30" fill="#2C7F8C" opacity="0.72">1</text>
<text x="874" y="-15" fill="#0B4152" opacity="1.0">0</text>
</g>
<g class="rain" style="animation-duration:10.6s;animation-delay:-0.1s">
<text x="898" y="-75" fill="#0E5468" opacity="0.0">0</text>
<text x="898" y="-60" fill="#0E5468" opacity="0.095">0</text>
<text x="898" y="-45" fill="#2C7F8C" opacity="0.72">1</text>
<text x="898" y="-30" fill="#2C7F8C" opacity="0.72">1</text>
<text x="898" y="-15" fill="#0B4152" opacity="1.0">1</text>
</g>
<g class="rain" style="animation-duration:8.8s;animation-delay:-4.9s">
<text x="922" y="-120" fill="#0E5468" opacity="0.0">0</text>
<text x="922" y="-105" fill="#0E5468" opacity="0.037">1</text>
<text x="922" y="-90" fill="#0E5468" opacity="0.119">1</text>
<text x="922" y="-75" fill="#0E5468" opacity="0.237">0</text>
<text x="922" y="-60" fill="#0E5468" opacity="0.386">0</text>
<text x="922" y="-45" fill="#2C7F8C" opacity="0.72">1</text>
<text x="922" y="-30" fill="#2C7F8C" opacity="0.72">0</text>
<text x="922" y="-15" fill="#0B4152" opacity="1.0">0</text>
</g>
<g class="rain" style="animation-duration:4.5s;animation-delay:-8.8s">
<text x="946" y="-210" fill="#0E5468" opacity="0.0">1</text>
<text x="946" y="-195" fill="#0E5468" opacity="0.013">1</text>
<text x="946" y="-180" fill="#0E5468" opacity="0.041">0</text>
<text x="946" y="-165" fill="#0E5468" opacity="0.083">0</text>
<text x="946" y="-150" fill="#0E5468" opacity="0.135">1</text>
<text x="946" y="-135" fill="#0E5468" opacity="0.197">0</text>
<text x="946" y="-120" fill="#0E5468" opacity="0.269">0</text>
<text x="946" y="-105" fill="#0E5468" opacity="0.349">1</text>
<text x="946" y="-90" fill="#0E5468" opacity="0.438">1</text>
<text x="946" y="-75" fill="#0E5468" opacity="0.535">1</text>
<text x="946" y="-60" fill="#0E5468" opacity="0.64">1</text>
<text x="946" y="-45" fill="#2C7F8C" opacity="0.72">1</text>
<text x="946" y="-30" fill="#2C7F8C" opacity="0.72">0</text>
<text x="946" y="-15" fill="#0B4152" opacity="1.0">1</text>
</g>
<g class="rain" style="animation-duration:4.2s;animation-delay:-4.6s">
<text x="970" y="-225" fill="#0E5468" opacity="0.0">0</text>
<text x="970" y="-210" fill="#0E5468" opacity="0.011">1</text>
<text x="970" y="-195" fill="#0E5468" opacity="0.037">0</text>
<text x="970" y="-180" fill="#0E5468" opacity="0.073">1</text>
<text x="970" y="-165" fill="#0E5468" opacity="0.119">1</text>
<text x="970" y="-150" fill="#0E5468" opacity="0.174">0</text>
<text x="970" y="-135" fill="#0E5468" opacity="0.237">1</text>
<text x="970" y="-120" fill="#0E5468" opacity="0.308">0</text>
<text x="970" y="-105" fill="#0E5468" opacity="0.386">1</text>
<text x="970" y="-90" fill="#0E5468" opacity="0.472">1</text>
<text x="970" y="-75" fill="#0E5468" opacity="0.564">1</text>
<text x="970" y="-60" fill="#0E5468" opacity="0.664">1</text>
<text x="970" y="-45" fill="#2C7F8C" opacity="0.72">1</text>
<text x="970" y="-30" fill="#2C7F8C" opacity="0.72">1</text>
<text x="970" y="-15" fill="#0B4152" opacity="1.0">1</text>
</g>
<g class="rain" style="animation-duration:5.9s;animation-delay:-4.0s">
<text x="994" y="-195" fill="#0E5468" opacity="0.0">1</text>
<text x="994" y="-180" fill="#0E5468" opacity="0.015">1</text>
<text x="994" y="-165" fill="#0E5468" opacity="0.048">0</text>
<text x="994" y="-150" fill="#0E5468" opacity="0.095">0</text>
<text x="994" y="-135" fill="#0E5468" opacity="0.154">0</text>
<text x="994" y="-120" fill="#0E5468" opacity="0.226">0</text>
<text x="994" y="-105" fill="#0E5468" opacity="0.308">0</text>
<text x="994" y="-90" fill="#0E5468" opacity="0.4">1</text>
<text x="994" y="-75" fill="#0E5468" opacity="0.502">1</text>
<text x="994" y="-60" fill="#0E5468" opacity="0.613">0</text>
<text x="994" y="-45" fill="#2C7F8C" opacity="0.72">1</text>
<text x="994" y="-30" fill="#2C7F8C" opacity="0.72">1</text>
<text x="994" y="-15" fill="#0B4152" opacity="1.0">0</text>
</g>
</g>
<g font-family="'Segoe UI', -apple-system, BlinkMacSystemFont, 'Helvetica Neue', Arial, sans-serif">
<text class="fade" x="60" y="104" font-size="42" font-weight="700" fill="#0E151C" letter-spacing="-0.6">Rafael Rôlo</text>
<text class="fade" style="animation-delay:.12s" x="60" y="136" font-size="13" font-weight="600" fill="#0E5468" letter-spacing="2.6">SPECIALIST &amp; TECH LEAD · CAPITAL MARKETS</text>
<line class="fade" style="animation-delay:.2s" x1="60" y1="166" x2="940" y2="166" stroke="#DDE3E8" stroke-width="1"/>
<text class="fade" style="animation-delay:0.30s" x="60" y="232" font-size="46" font-weight="700" fill="#0E151C" letter-spacing="-1.2">17</text>
<text class="fade" style="animation-delay:0.36s" x="61" y="256" font-size="12" font-weight="600" fill="#5A6675" letter-spacing="1.6">YEARS ON THE JVM</text>
<text class="fade" style="animation-delay:0.39s" x="288" y="232" font-size="46" font-weight="700" fill="#0E151C" letter-spacing="-1.2">798</text>
<text class="fade" style="animation-delay:0.45s" x="289" y="256" font-size="12" font-weight="600" fill="#5A6675" letter-spacing="1.6">PULL REQUESTS</text>
<text class="fade" style="animation-delay:0.48s" x="516" y="232" font-size="46" font-weight="700" fill="#0E151C" letter-spacing="-1.2">906</text>
<text class="fade" style="animation-delay:0.54s" x="517" y="256" font-size="12" font-weight="600" fill="#5A6675" letter-spacing="1.6">CODE REVIEWS</text>
<text class="fade" style="animation-delay:0.57s" x="744" y="232" font-size="46" font-weight="700" fill="#0E151C" letter-spacing="-1.2">8</text>
<text class="fade" style="animation-delay:0.63s" x="745" y="256" font-size="12" font-weight="600" fill="#5A6675" letter-spacing="1.6">SECTORS SERVED</text>
<text class="fade" style="animation-delay:.75s" x="60" y="286" font-size="9.5" font-weight="600" fill="#808C99" letter-spacing="1.2">PRIVATE CORPORATE REPOSITORIES · MEASURED AUGUST 2026</text>
</g>
<rect x="0" y="0" width="1000" height="5" fill="url(#slight)"/>
</g></svg>
