<svg xmlns="http://www.w3.org/2000/svg" viewBox="0 0 1000 330" width="1000" height="330" role="img" aria-label="To an artificial mind, all reality is virtual. A city skyline at dusk under a moon, with an aircraft crossing.">
<defs>
<linearGradient id="skydark" x1="0" y1="0" x2="0" y2="1"><stop offset="0" stop-color="#0A1015"/><stop offset="1" stop-color="#16303B"/></linearGradient>
<linearGradient id="stdark" x1="0" y1="0" x2="1" y2="0"><stop offset="0" stop-color="#56AEC2"/><stop offset="0.55" stop-color="#3E93A8"/><stop offset="1" stop-color="#C9A468"/></linearGradient>
<linearGradient id="shootingdark" x1="0" y1="0" x2="1" y2="1"><stop offset="0" stop-color="#DCEEF6" stop-opacity="0"/><stop offset="0.6" stop-color="#DCEEF6" stop-opacity="0.45"/><stop offset="1" stop-color="#FFFFFF" stop-opacity="1"/></linearGradient>
<linearGradient id="cometdark" x1="0" y1="0" x2="1" y2="1"><stop offset="0" stop-color="#DCEEF6" stop-opacity="0"/><stop offset="0.6" stop-color="#DCEEF6" stop-opacity="0.45"/><stop offset="1" stop-color="#FFFFFF" stop-opacity="1"/></linearGradient>
<clipPath id="scdark"><rect x="0" y="0" width="1000" height="330" rx="10"/></clipPath>
</defs>
<style>.st1{animation-name:tw1;animation-timing-function:ease-in-out;animation-iteration-count:infinite}.st2{animation-name:tw2;animation-timing-function:ease-in-out;animation-iteration-count:infinite}.st3{animation-name:tw3;animation-timing-function:ease-in-out;animation-iteration-count:infinite}.st4{animation-name:tw4;animation-timing-function:ease-in-out;animation-iteration-count:infinite}.bk{animation-name:bk;animation-timing-function:ease-in-out;animation-iteration-count:infinite}.bo{animation-name:bo;animation-timing-function:ease-in-out;animation-iteration-count:infinite}.b3{animation-name:b3;animation-timing-function:ease-in-out;animation-iteration-count:infinite}.b4{animation-name:b4;animation-timing-function:ease-in-out;animation-iteration-count:infinite}.bl{animation:bl 2s step-end infinite}.ft{opacity:0;animation:ftin .7s ease .15s forwards}@keyframes tw1{0%,24%{opacity:1}39%{opacity:.04}55%{opacity:.92}69%{opacity:.07}85%,100%{opacity:1}}@keyframes tw2{0%,51%{opacity:1}62%{opacity:.05}77%{opacity:.98}87%{opacity:.09}100%{opacity:1}}@keyframes tw3{0%{opacity:.06}17%{opacity:1}43%{opacity:.04}64%{opacity:.95}82%{opacity:.12}100%{opacity:.06}}@keyframes tw4{0%,36%{opacity:.97}47%{opacity:.03}58%{opacity:.55}71%{opacity:1}88%,100%{opacity:.97}}@keyframes bk{0%,46%{opacity:1}58%,94%{opacity:0}100%{opacity:1}}@keyframes bo{0%,34%{opacity:0}44%,88%{opacity:1}100%{opacity:0}}@keyframes b3{0%,17%{opacity:1}26%,44%{opacity:0}53%,71%{opacity:1}80%,96%{opacity:0}100%{opacity:1}}@keyframes b4{0%,9%{opacity:0}19%,29%{opacity:1}38%,77%{opacity:0}86%,96%{opacity:1}100%{opacity:0}}@keyframes bl{50%{opacity:.15}}@keyframes cw{0%{fill:#C9A468}50%{fill:#F0D79A}100%{fill:#A8823F}150%{fill:#C9A468}}@keyframes cc{0%{fill:#56AEC2}100%{fill:#8FCEDC}200%{fill:#56AEC2}}@keyframes ftin{to{opacity:1}}@media (prefers-reduced-motion: reduce){.ft{opacity:1;animation:none}}.k0,.k1,.k2,.k3,.k4,.k5,.k6,.k7,.k8,.k9,.k10,.k11,.k12,.k13,.k14,.k15,.k16,.k17,.k18,.k19,.k20,.k21,.k22,.k23,.k24,.k25,.k26,.k27,.k28,.k29,.k30,.k31,.k32,.k33,.k34,.k35,.k36,.k37,.k38,.k39,.k40,.k41,.k42,.k43,.k44,.k45,.k46,.k47,.k48,.k49,.k50,.k51,.k52,.k53,.k54,.k55,.k56,.k57,.k58,.k59,.k60,.k61,.k62,.k63,.k64,.k65,.k66,.k67,.k68,.k69,.k70,.k71,.k72,.k73,.k74,.k75,.k76{animation-timing-function:ease-in-out;animation-iteration-count:infinite}.k0{animation-name:b3;animation-duration:7.0s;animation-delay:-0.0s}.k1{animation-name:b3;animation-duration:7.0s;animation-delay:-2.3s}.k2{animation-name:b3;animation-duration:7.0s;animation-delay:-4.7s}.k3{animation-name:b3;animation-duration:11.0s;animation-delay:-3.7s}.k4{animation-name:b3;animation-duration:16.0s;animation-delay:-0.0s}.k5{animation-name:b3;animation-duration:16.0s;animation-delay:-5.3s}.k6{animation-name:b3;animation-duration:21.0s;animation-delay:-0.0s}.k7{animation-name:b3;animation-duration:21.0s;animation-delay:-7.0s}.k8{animation-name:b3;animation-duration:21.0s;animation-delay:-14.0s}.k9{animation-name:b3,cc;animation-duration:7.0s,18.9s;animation-delay:-0.0s,0.0s}.k10{animation-name:b3,cc;animation-duration:7.0s,18.9s;animation-delay:-2.3s,0.0s}.k11{animation-name:b3,cc;animation-duration:7.0s,18.9s;animation-delay:-4.7s,0.0s}.k12{animation-name:b3,cc;animation-duration:11.0s,29.7s;animation-delay:-0.0s,0.0s}.k13{animation-name:b3,cc;animation-duration:11.0s,29.7s;animation-delay:-3.7s,0.0s}.k14{animation-name:b3,cc;animation-duration:16.0s,43.2s;animation-delay:-0.0s,0.0s}.k15{animation-name:b3,cc;animation-duration:16.0s,43.2s;animation-delay:-10.7s,0.0s}.k16{animation-name:b3,cc;animation-duration:21.0s,56.7s;animation-delay:-7.0s,0.0s}.k17{animation-name:b3,cw;animation-duration:7.0s,18.9s;animation-delay:-2.3s,0.0s}.k18{animation-name:b3,cw;animation-duration:7.0s,18.9s;animation-delay:-4.7s,0.0s}.k19{animation-name:b3,cw;animation-duration:16.0s,43.2s;animation-delay:-5.3s,0.0s}.k20{animation-name:b4;animation-duration:7.0s;animation-delay:-2.3s}.k21{animation-name:b4;animation-duration:7.0s;animation-delay:-4.7s}.k22{animation-name:b4;animation-duration:11.0s;animation-delay:-3.7s}.k23{animation-name:b4;animation-duration:16.0s;animation-delay:-10.7s}.k24{animation-name:b4;animation-duration:21.0s;animation-delay:-0.0s}.k25{animation-name:b4,cc;animation-duration:7.0s,18.9s;animation-delay:-0.0s,0.0s}.k26{animation-name:b4,cc;animation-duration:7.0s,18.9s;animation-delay:-4.7s,0.0s}.k27{animation-name:b4,cc;animation-duration:11.0s,29.7s;animation-delay:-3.7s,0.0s}.k28{animation-name:b4,cc;animation-duration:16.0s,43.2s;animation-delay:-0.0s,0.0s}.k29{animation-name:b4,cc;animation-duration:16.0s,43.2s;animation-delay:-10.7s,0.0s}.k30{animation-name:b4,cc;animation-duration:21.0s,56.7s;animation-delay:-0.0s,0.0s}.k31{animation-name:b4,cc;animation-duration:21.0s,56.7s;animation-delay:-14.0s,0.0s}.k32{animation-name:b4,cw;animation-duration:7.0s,18.9s;animation-delay:-0.0s,0.0s}.k33{animation-name:b4,cw;animation-duration:7.0s,18.9s;animation-delay:-2.3s,0.0s}.k34{animation-name:b4,cw;animation-duration:16.0s,43.2s;animation-delay:-10.7s,0.0s}.k35{animation-name:b4,cw;animation-duration:21.0s,56.7s;animation-delay:-7.0s,0.0s}.k36{animation-name:b4,cw;animation-duration:21.0s,56.7s;animation-delay:-14.0s,0.0s}.k37{animation-name:bk;animation-duration:7.0s;animation-delay:-0.0s}.k38{animation-name:bk;animation-duration:7.0s;animation-delay:-2.3s}.k39{animation-name:bk;animation-duration:7.0s;animation-delay:-4.7s}.k40{animation-name:bk;animation-duration:11.0s;animation-delay:-0.0s}.k41{animation-name:bk;animation-duration:11.0s;animation-delay:-3.7s}.k42{animation-name:bk;animation-duration:11.0s;animation-delay:-7.3s}.k43{animation-name:bk;animation-duration:16.0s;animation-delay:-0.0s}.k44{animation-name:bk;animation-duration:16.0s;animation-delay:-10.7s}.k45{animation-name:bk;animation-duration:21.0s;animation-delay:-0.0s}.k46{animation-name:bk;animation-duration:21.0s;animation-delay:-7.0s}.k47{animation-name:bk,cc;animation-duration:7.0s,18.9s;animation-delay:-0.0s,0.0s}.k48{animation-name:bk,cc;animation-duration:11.0s,29.7s;animation-delay:-3.7s,0.0s}.k49{animation-name:bk,cc;animation-duration:11.0s,29.7s;animation-delay:-7.3s,0.0s}.k50{animation-name:bk,cc;animation-duration:21.0s,56.7s;animation-delay:-0.0s,0.0s}.k51{animation-name:bk,cc;animation-duration:21.0s,56.7s;animation-delay:-7.0s,0.0s}.k52{animation-name:bk,cc;animation-duration:21.0s,56.7s;animation-delay:-14.0s,0.0s}.k53{animation-name:bk,cw;animation-duration:7.0s,18.9s;animation-delay:-2.3s,0.0s}.k54{animation-name:bk,cw;animation-duration:11.0s,29.7s;animation-delay:-3.7s,0.0s}.k55{animation-name:bk,cw;animation-duration:21.0s,56.7s;animation-delay:-0.0s,0.0s}.k56{animation-name:bk,cw;animation-duration:21.0s,56.7s;animation-delay:-7.0s,0.0s}.k57{animation-name:bo;animation-duration:7.0s;animation-delay:-2.3s}.k58{animation-name:bo;animation-duration:7.0s;animation-delay:-4.7s}.k59{animation-name:bo;animation-duration:11.0s;animation-delay:-0.0s}.k60{animation-name:bo;animation-duration:11.0s;animation-delay:-3.7s}.k61{animation-name:bo;animation-duration:11.0s;animation-delay:-7.3s}.k62{animation-name:bo;animation-duration:16.0s;animation-delay:-0.0s}.k63{animation-name:bo;animation-duration:16.0s;animation-delay:-5.3s}.k64{animation-name:bo;animation-duration:16.0s;animation-delay:-10.7s}.k65{animation-name:bo;animation-duration:21.0s;animation-delay:-0.0s}.k66{animation-name:bo;animation-duration:21.0s;animation-delay:-7.0s}.k67{animation-name:bo,cc;animation-duration:7.0s,18.9s;animation-delay:-0.0s,0.0s}.k68{animation-name:bo,cc;animation-duration:7.0s,18.9s;animation-delay:-2.3s,0.0s}.k69{animation-name:bo,cc;animation-duration:7.0s,18.9s;animation-delay:-4.7s,0.0s}.k70{animation-name:bo,cc;animation-duration:16.0s,43.2s;animation-delay:-5.3s,0.0s}.k71{animation-name:bo,cc;animation-duration:21.0s,56.7s;animation-delay:-0.0s,0.0s}.k72{animation-name:bo,cc;animation-duration:21.0s,56.7s;animation-delay:-7.0s,0.0s}.k73{animation-name:bo,cw;animation-duration:7.0s,18.9s;animation-delay:-0.0s,0.0s}.k74{animation-name:bo,cw;animation-duration:7.0s,18.9s;animation-delay:-4.7s,0.0s}.k75{animation-name:bo,cw;animation-duration:11.0s,29.7s;animation-delay:-0.0s,0.0s}.k76{animation-name:bo,cw;animation-duration:21.0s,56.7s;animation-delay:-14.0s,0.0s}</style>
<g clip-path="url(#scdark)">
<rect x="0" y="0" width="1000" height="330" fill="url(#skydark)"/>
<path class="st1" style="animation-duration:4.3s;animation-delay:-3.9s" d="M418.0 14.2 l1.1 2.7 l2.7 1.1 l-2.7 1.1 l-1.1 2.7 l-1.1 -2.7 l-2.7 -1.1 l2.7 -1.1 z" fill="#C8DCE6"/>
<path class="st4" style="animation-duration:4.4s;animation-delay:-0.3s" d="M233.0 11.5 l1.0 2.5 l2.5 1.0 l-2.5 1.0 l-1.0 2.5 l-1.0 -2.5 l-2.5 -1.0 l2.5 -1.0 z" fill="#C8DCE6"/>
<path d="M984.0 59.1 l1.1 2.8 l2.8 1.1 l-2.8 1.1 l-1.1 2.8 l-1.1 -2.8 l-2.8 -1.1 l2.8 -1.1 z" fill="#C8DCE6" opacity="0.78"/>
<path class="st2" style="animation-duration:4.0s;animation-delay:-2.2s" d="M64.0 57.4 l1.3 3.3 l3.3 1.3 l-3.3 1.3 l-1.3 3.3 l-1.3 -3.3 l-3.3 -1.3 l3.3 -1.3 z" fill="#C8DCE6"/>
<path class="st2" style="animation-duration:9.4s;animation-delay:-3.5s" d="M598.0 79.8 l1.2 3.0 l3.0 1.2 l-3.0 1.2 l-1.2 3.0 l-1.2 -3.0 l-3.0 -1.2 l3.0 -1.2 z" fill="#C8DCE6"/>
<path class="st4" style="animation-duration:9.4s;animation-delay:-7.3s" d="M574.0 18.0 l1.2 2.9 l2.9 1.2 l-2.9 1.2 l-1.2 2.9 l-1.2 -2.9 l-2.9 -1.2 l2.9 -1.2 z" fill="#C8DCE6"/>
<path class="st2" style="animation-duration:7.3s;animation-delay:-0.6s" d="M490.0 119.0 l0.9 2.2 l2.2 0.9 l-2.2 0.9 l-0.9 2.2 l-0.9 -2.2 l-2.2 -0.9 l2.2 -0.9 z" fill="#C8DCE6"/>
<path class="st1" style="animation-duration:8.7s;animation-delay:-1.0s" d="M321.0 136.7 l1.0 2.4 l2.4 1.0 l-2.4 1.0 l-1.0 2.4 l-1.0 -2.4 l-2.4 -1.0 l2.4 -1.0 z" fill="#C8DCE6"/>
<path d="M789.0 89.3 l1.1 2.6 l2.6 1.1 l-2.6 1.1 l-1.1 2.6 l-1.1 -2.6 l-2.6 -1.1 l2.6 -1.1 z" fill="#C8DCE6" opacity="0.82"/>
<path class="st3" style="animation-duration:9.5s;animation-delay:-5.6s" d="M796.0 143.3 l1.4 3.4 l3.4 1.4 l-3.4 1.4 l-1.4 3.4 l-1.4 -3.4 l-3.4 -1.4 l3.4 -1.4 z" fill="#C8DCE6"/>
<path class="st1" style="animation-duration:4.2s;animation-delay:-0.3s" d="M607.0 119.4 l0.8 1.9 l1.9 0.8 l-1.9 0.8 l-0.8 1.9 l-0.8 -1.9 l-1.9 -0.8 l1.9 -0.8 z" fill="#C8DCE6"/>
<path class="st3" style="animation-duration:10.3s;animation-delay:-7.4s" d="M732.0 80.0 l1.4 3.6 l3.6 1.4 l-3.6 1.4 l-1.4 3.6 l-1.4 -3.6 l-3.6 -1.4 l3.6 -1.4 z" fill="#C8DCE6"/>
<path class="st1" style="animation-duration:3.7s;animation-delay:-1.8s" d="M922.0 90.4 l1.0 2.6 l2.6 1.0 l-2.6 1.0 l-1.0 2.6 l-1.0 -2.6 l-2.6 -1.0 l2.6 -1.0 z" fill="#C8DCE6"/>
<path class="st4" style="animation-duration:4.9s;animation-delay:-0.4s" d="M237.0 76.0 l0.9 2.2 l2.2 0.9 l-2.2 0.9 l-0.9 2.2 l-0.9 -2.2 l-2.2 -0.9 l2.2 -0.9 z" fill="#C8DCE6"/>
<path class="st3" style="animation-duration:9.3s;animation-delay:-6.6s" d="M473.0 103.3 l1.4 3.4 l3.4 1.4 l-3.4 1.4 l-1.4 3.4 l-1.4 -3.4 l-3.4 -1.4 l3.4 -1.4 z" fill="#C8DCE6"/>
<path class="st2" style="animation-duration:13.6s;animation-delay:-9.0s" d="M381.0 100.2 l0.8 2.0 l2.0 0.8 l-2.0 0.8 l-0.8 2.0 l-0.8 -2.0 l-2.0 -0.8 l2.0 -0.8 z" fill="#C8DCE6"/>
<path class="st2" style="animation-duration:12.2s;animation-delay:-5.1s" d="M26.0 127.1 l0.8 2.1 l2.1 0.8 l-2.1 0.8 l-0.8 2.1 l-0.8 -2.1 l-2.1 -0.8 l2.1 -0.8 z" fill="#C8DCE6"/>
<path class="st1" style="animation-duration:6.8s;animation-delay:-3.1s" d="M392.0 147.3 l0.8 2.0 l2.0 0.8 l-2.0 0.8 l-0.8 2.0 l-0.8 -2.0 l-2.0 -0.8 l2.0 -0.8 z" fill="#C8DCE6"/>
<path class="st4" style="animation-duration:7.6s;animation-delay:-0.5s" d="M905.0 145.6 l1.0 2.5 l2.5 1.0 l-2.5 1.0 l-1.0 2.5 l-1.0 -2.5 l-2.5 -1.0 l2.5 -1.0 z" fill="#C8DCE6"/>
<path class="st1" style="animation-duration:8.1s;animation-delay:-0.0s" d="M82.0 56.3 l0.8 1.9 l1.9 0.8 l-1.9 0.8 l-0.8 1.9 l-0.8 -1.9 l-1.9 -0.8 l1.9 -0.8 z" fill="#C8DCE6"/>
<path d="M168.0 139.7 l1.0 2.4 l2.4 1.0 l-2.4 1.0 l-1.0 2.4 l-1.0 -2.4 l-2.4 -1.0 l2.4 -1.0 z" fill="#C8DCE6" opacity="0.90"/>
<path class="st3" style="animation-duration:5.1s;animation-delay:-2.4s" d="M642.0 98.9 l0.9 2.2 l2.2 0.9 l-2.2 0.9 l-0.9 2.2 l-0.9 -2.2 l-2.2 -0.9 l2.2 -0.9 z" fill="#C8DCE6"/>
<path class="st1" style="animation-duration:13.9s;animation-delay:-2.0s" d="M132.0 126.4 l1.0 2.6 l2.6 1.0 l-2.6 1.0 l-1.0 2.6 l-1.0 -2.6 l-2.6 -1.0 l2.6 -1.0 z" fill="#C8DCE6"/>
<path class="st1" style="animation-duration:11.3s;animation-delay:-2.3s" d="M781.0 89.4 l1.1 2.6 l2.6 1.1 l-2.6 1.1 l-1.1 2.6 l-1.1 -2.6 l-2.6 -1.1 l2.6 -1.1 z" fill="#C8DCE6"/>
<path d="M554.0 94.2 l1.1 2.7 l2.7 1.1 l-2.7 1.1 l-1.1 2.7 l-1.1 -2.7 l-2.7 -1.1 l2.7 -1.1 z" fill="#C8DCE6" opacity="0.76"/>
<path class="st2" style="animation-duration:8.9s;animation-delay:-4.7s" d="M726.0 67.2 l1.4 3.4 l3.4 1.4 l-3.4 1.4 l-1.4 3.4 l-1.4 -3.4 l-3.4 -1.4 l3.4 -1.4 z" fill="#C8DCE6"/>
<path class="st2" style="animation-duration:7.0s;animation-delay:-5.6s" d="M811.0 131.0 l0.9 2.1 l2.1 0.9 l-2.1 0.9 l-0.9 2.1 l-0.9 -2.1 l-2.1 -0.9 l2.1 -0.9 z" fill="#C8DCE6"/>
<path class="st3" style="animation-duration:11.3s;animation-delay:-8.3s" d="M851.0 105.0 l0.9 2.2 l2.2 0.9 l-2.2 0.9 l-0.9 2.2 l-0.9 -2.2 l-2.2 -0.9 l2.2 -0.9 z" fill="#C8DCE6"/>
<path class="st3" style="animation-duration:8.5s;animation-delay:-3.8s" d="M42.0 74.1 l0.8 2.1 l2.1 0.8 l-2.1 0.8 l-0.8 2.1 l-0.8 -2.1 l-2.1 -0.8 l2.1 -0.8 z" fill="#C8DCE6"/>
<path class="st2" style="animation-duration:13.5s;animation-delay:-6.3s" d="M973.0 91.7 l1.0 2.4 l2.4 1.0 l-2.4 1.0 l-1.0 2.4 l-1.0 -2.4 l-2.4 -1.0 l2.4 -1.0 z" fill="#C8DCE6"/>
<path class="st1" style="animation-duration:8.6s;animation-delay:-4.1s" d="M359.0 53.0 l1.4 3.6 l3.6 1.4 l-3.6 1.4 l-1.4 3.6 l-1.4 -3.6 l-3.6 -1.4 l3.6 -1.4 z" fill="#C8DCE6"/>
<path class="st4" style="animation-duration:11.9s;animation-delay:-9.3s" d="M682.0 91.4 l0.8 1.9 l1.9 0.8 l-1.9 0.8 l-0.8 1.9 l-0.8 -1.9 l-1.9 -0.8 l1.9 -0.8 z" fill="#C8DCE6"/>
<path class="st3" style="animation-duration:8.5s;animation-delay:-0.7s" d="M782.0 54.1 l0.8 2.1 l2.1 0.8 l-2.1 0.8 l-0.8 2.1 l-0.8 -2.1 l-2.1 -0.8 l2.1 -0.8 z" fill="#C8DCE6"/>
<path d="M982.0 102.7 l1.3 3.1 l3.1 1.3 l-3.1 1.3 l-1.3 3.1 l-1.3 -3.1 l-3.1 -1.3 l3.1 -1.3 z" fill="#C8DCE6" opacity="0.61"/>
<circle cx="888" cy="40" r="17" fill="#F4EBC4"/>
<circle cx="893" cy="44" r="3.0" fill="#D9CB99" opacity="0.7"/>
<circle cx="882" cy="37" r="2.1" fill="#D9CB99" opacity="0.7"/>
<circle cx="890" cy="32" r="1.5" fill="#D9CB99" opacity="0.7"/>
<circle cx="886" cy="47" r="1.7" fill="#D9CB99" opacity="0.7"/>
<circle cx="897" cy="35" r="1.2" fill="#D9CB99" opacity="0.7"/>
<circle cx="880" cy="46" r="1.1" fill="#D9CB99" opacity="0.7"/>
<g opacity="0"><line x1="0" y1="0" x2="52" y2="28" stroke="url(#shootingdark)" stroke-width="1.9" stroke-linecap="round"/><path d="M52.0 22.9 l1.5 3.7 l3.7 1.5 l-3.7 1.5 l-1.5 3.7 l-1.5 -3.7 l-3.7 -1.5 l3.7 -1.5 z" fill="#FFFFFF"/><animate attributeName="opacity" values="0;1;1;0;0;1;1;0;0;1;1;0;0" keyTimes="0.0000;0.0067;0.0344;0.0420;0.3333;0.3401;0.3678;0.3753;0.6667;0.6734;0.7011;0.7087;1" dur="58.0s" repeatCount="indefinite"/><animateTransform attributeName="transform" type="translate" values="52 -20;236 40;236 40;16 -14;190 34;190 34;96 -24;254 26;254 26;254 26" keyTimes="0.0000;0.0420;0.1662;0.3333;0.3753;0.4995;0.6667;0.7087;0.8328;1" dur="58.0s" repeatCount="indefinite"/></g>
<g opacity="0"><line x1="0" y1="0" x2="68" y2="37" stroke="url(#cometdark)" stroke-width="2.2" stroke-linecap="round"/><path d="M68.0 31.1 l1.7 4.3 l4.3 1.7 l-4.3 1.7 l-1.7 4.3 l-1.7 -4.3 l-4.3 -1.7 l4.3 -1.7 z" fill="#FFFFFF"/><animate attributeName="opacity" values="0;0;1;1;0;0;1;1;0;0;1;1;0;0" keyTimes="0;0.1667;0.1734;0.2011;0.2087;0.5000;0.5067;0.5344;0.5420;0.8333;0.8401;0.8678;0.8753;1" dur="58.0s" repeatCount="indefinite"/><animateTransform attributeName="transform" type="translate" values="-130 60;-130 60;470 88;470 88;250 88;900 60;900 60;-90 82;640 64;640 64;640 64" keyTimes="0;0.1667;0.2087;0.3328;0.5000;0.5420;0.6662;0.8333;0.8753;0.9995;1" dur="58.0s" repeatCount="indefinite"/></g>
<rect x="-20" y="286" width="24" height="39" fill="#101F27"/>
<rect x="9" y="258" width="38" height="67" fill="#101F27"/>
<rect x="60" y="248" width="24" height="77" fill="#101F27"/>
<rect x="96" y="245" width="35" height="80" fill="#101F27"/>
<rect x="139" y="252" width="24" height="73" fill="#101F27"/>
<rect x="174" y="286" width="24" height="39" fill="#101F27"/>
<rect x="201" y="241" width="45" height="84" fill="#101F27"/>
<rect x="259" y="254" width="23" height="71" fill="#101F27"/>
<rect x="296" y="260" width="24" height="65" fill="#101F27"/>
<rect x="326" y="274" width="46" height="51" fill="#101F27"/>
<rect x="375" y="274" width="28" height="51" fill="#101F27"/>
<rect x="410" y="272" width="36" height="53" fill="#101F27"/>
<rect x="458" y="271" width="30" height="54" fill="#101F27"/>
<rect x="499" y="234" width="33" height="91" fill="#101F27"/>
<rect x="537" y="240" width="21" height="85" fill="#101F27"/>
<rect x="566" y="245" width="34" height="80" fill="#101F27"/>
<rect x="612" y="254" width="46" height="71" fill="#101F27"/>
<rect x="667" y="255" width="46" height="70" fill="#101F27"/>
<rect x="718" y="278" width="37" height="47" fill="#101F27"/>
<rect x="766" y="286" width="36" height="39" fill="#101F27"/>
<rect x="812" y="276" width="44" height="49" fill="#101F27"/>
<rect x="868" y="238" width="20" height="87" fill="#101F27"/>
<rect x="893" y="278" width="25" height="47" fill="#101F27"/>
<rect x="928" y="241" width="39" height="84" fill="#101F27"/>
<rect x="971" y="284" width="37" height="41" fill="#101F27"/>
<rect x="-20" y="254" width="60" height="71" fill="#0A151B"/>
<rect x="51" y="236" width="33" height="89" fill="#0A151B"/>
<rect x="90" y="262" width="47" height="63" fill="#0A151B"/>
<rect x="141" y="210" width="62" height="115" fill="#0A151B"/>
<rect x="214" y="259" width="31" height="66" fill="#0A151B"/>
<rect x="255" y="203" width="50" height="122" fill="#0A151B"/>
<rect x="317" y="242" width="62" height="83" fill="#0A151B"/>
<rect x="393" y="210" width="47" height="115" fill="#0A151B"/>
<rect x="451" y="203" width="60" height="122" fill="#0A151B"/>
<rect x="517" y="242" width="46" height="83" fill="#0A151B"/>
<rect x="573" y="214" width="38" height="111" fill="#0A151B"/>
<rect x="615" y="211" width="55" height="114" fill="#0A151B"/>
<rect x="678" y="237" width="34" height="88" fill="#0A151B"/>
<rect x="721" y="240" width="34" height="85" fill="#0A151B"/>
<rect x="768" y="252" width="49" height="73" fill="#0A151B"/>
<rect x="822" y="249" width="53" height="76" fill="#0A151B"/>
<rect x="882" y="208" width="38" height="117" fill="#0A151B"/>
<rect x="926" y="217" width="36" height="108" fill="#0A151B"/>
<rect x="972" y="239" width="40" height="86" fill="#0A151B"/>
<rect x="548" y="291" width="370" height="5" fill="#0A151B"/>
<rect x="739" y="157" width="6" height="139" fill="#0A151B"/>
<line x1="742" y1="167" x2="718" y2="291" stroke="#0A151B" stroke-width="1.1" opacity="0.85"/>
<line x1="742" y1="167" x2="766" y2="291" stroke="#0A151B" stroke-width="1.1" opacity="0.85"/>
<line x1="742" y1="167" x2="694" y2="291" stroke="#0A151B" stroke-width="1.1" opacity="0.85"/>
<line x1="742" y1="167" x2="790" y2="291" stroke="#0A151B" stroke-width="1.1" opacity="0.85"/>
<line x1="742" y1="167" x2="670" y2="291" stroke="#0A151B" stroke-width="1.1" opacity="0.85"/>
<line x1="742" y1="167" x2="814" y2="291" stroke="#0A151B" stroke-width="1.1" opacity="0.85"/>
<line x1="742" y1="167" x2="646" y2="291" stroke="#0A151B" stroke-width="1.1" opacity="0.85"/>
<line x1="742" y1="167" x2="838" y2="291" stroke="#0A151B" stroke-width="1.1" opacity="0.85"/>
<line x1="742" y1="167" x2="622" y2="291" stroke="#0A151B" stroke-width="1.1" opacity="0.85"/>
<line x1="742" y1="167" x2="862" y2="291" stroke="#0A151B" stroke-width="1.1" opacity="0.85"/>
<line x1="742" y1="167" x2="598" y2="291" stroke="#0A151B" stroke-width="1.1" opacity="0.85"/>
<line x1="742" y1="167" x2="886" y2="291" stroke="#0A151B" stroke-width="1.1" opacity="0.85"/>
<line x1="742" y1="167" x2="574" y2="291" stroke="#0A151B" stroke-width="1.1" opacity="0.85"/>
<line x1="742" y1="167" x2="910" y2="291" stroke="#0A151B" stroke-width="1.1" opacity="0.85"/>
<rect x="588" y="291" width="7" height="34" fill="#0A151B"/>
<rect x="878" y="291" width="7" height="34" fill="#0A151B"/>
<circle class="bl" cx="742" cy="153" r="2.2" fill="#C9A468"/>
<rect x="-20" y="192" width="91" height="133" fill="#050C10"/>
<rect x="80" y="208" width="78" height="117" fill="#050C10"/>
<rect x="171" y="183" width="73" height="142" fill="#050C10"/>
<rect x="207" y="165" width="2" height="18" fill="#050C10"/>
<circle class="bl" style="animation-delay:1.0s" cx="208" cy="163" r="2.2" fill="#C9A468"/>
<rect x="254" y="181" width="64" height="144" fill="#050C10"/>
<rect x="286" y="163" width="2" height="18" fill="#050C10"/>
<circle class="bl" style="animation-delay:0.9s" cx="287" cy="161" r="2.2" fill="#C9A468"/>
<rect x="331" y="177" width="71" height="148" fill="#050C10"/>
<rect x="366" y="159" width="2" height="18" fill="#050C10"/>
<circle class="bl" style="animation-delay:1.4s" cx="367" cy="157" r="2.2" fill="#C9A468"/>
<rect x="411" y="245" width="65" height="80" fill="#050C10"/>
<rect x="483" y="212" width="75" height="113" fill="#050C10"/>
<rect x="562" y="226" width="51" height="99" fill="#050C10"/>
<rect x="623" y="167" width="47" height="158" fill="#050C10"/>
<rect x="646" y="149" width="2" height="18" fill="#050C10"/>
<circle class="bl" style="animation-delay:1.6s" cx="647" cy="147" r="2.2" fill="#C9A468"/>
<rect x="680" y="184" width="54" height="141" fill="#050C10"/>
<rect x="707" y="166" width="2" height="18" fill="#050C10"/>
<circle class="bl" style="animation-delay:1.6s" cx="708" cy="164" r="2.2" fill="#C9A468"/>
<rect x="746" y="200" width="63" height="125" fill="#050C10"/>
<rect x="821" y="238" width="65" height="87" fill="#050C10"/>
<rect x="896" y="231" width="56" height="94" fill="#050C10"/>
<rect x="957" y="220" width="82" height="105" fill="#050C10"/>
<path fill="#020608" d="M-10 272h5v7h-5zM3 208h5v7h-5zM3 256h5v7h-5zM3 272h5v7h-5zM3 288h5v7h-5zM3 304h5v7h-5zM16 208h5v7h-5zM16 240h5v7h-5zM29 240h5v7h-5zM29 288h5v7h-5zM29 304h5v7h-5zM42 224h5v7h-5zM42 240h5v7h-5zM42 256h5v7h-5zM42 288h5v7h-5zM42 304h5v7h-5zM55 272h5v7h-5zM55 304h5v7h-5zM90 224h5v7h-5zM90 240h5v7h-5zM90 272h5v7h-5zM90 288h5v7h-5zM90 304h5v7h-5zM103 272h5v7h-5zM103 288h5v7h-5zM129 272h5v7h-5zM142 224h5v7h-5zM142 240h5v7h-5zM142 272h5v7h-5zM142 304h5v7h-5zM181 215h5v7h-5zM181 231h5v7h-5zM181 247h5v7h-5zM181 263h5v7h-5zM181 279h5v7h-5zM181 295h5v7h-5zM181 311h5v7h-5zM194 215h5v7h-5zM194 231h5v7h-5zM194 311h5v7h-5zM207 199h5v7h-5zM207 231h5v7h-5zM207 247h5v7h-5zM207 279h5v7h-5zM207 311h5v7h-5zM220 215h5v7h-5zM220 247h5v7h-5zM220 263h5v7h-5zM220 279h5v7h-5zM264 197h5v7h-5zM264 213h5v7h-5zM264 229h5v7h-5zM264 293h5v7h-5zM264 309h5v7h-5zM277 213h5v7h-5zM277 229h5v7h-5zM277 293h5v7h-5zM290 261h5v7h-5zM290 277h5v7h-5zM303 213h5v7h-5zM303 261h5v7h-5zM303 309h5v7h-5zM341 209h5v7h-5zM341 225h5v7h-5zM354 225h5v7h-5zM354 241h5v7h-5zM354 289h5v7h-5zM367 193h5v7h-5zM367 241h5v7h-5zM367 289h5v7h-5zM380 225h5v7h-5zM380 241h5v7h-5zM380 257h5v7h-5zM380 273h5v7h-5zM380 305h5v7h-5zM421 309h5v7h-5zM434 277h5v7h-5zM434 293h5v7h-5zM434 309h5v7h-5zM447 293h5v7h-5zM447 309h5v7h-5zM460 277h5v7h-5zM493 228h5v7h-5zM493 244h5v7h-5zM493 260h5v7h-5zM493 308h5v7h-5zM506 244h5v7h-5zM506 260h5v7h-5zM519 228h5v7h-5zM532 244h5v7h-5zM532 292h5v7h-5zM572 274h5v7h-5zM585 290h5v7h-5zM598 258h5v7h-5zM598 306h5v7h-5zM633 183h5v7h-5zM633 215h5v7h-5zM633 279h5v7h-5zM633 311h5v7h-5zM646 183h5v7h-5zM646 199h5v7h-5zM646 215h5v7h-5zM646 247h5v7h-5zM646 279h5v7h-5zM646 295h5v7h-5zM646 311h5v7h-5zM690 200h5v7h-5zM690 216h5v7h-5zM690 232h5v7h-5zM690 248h5v7h-5zM703 216h5v7h-5zM703 280h5v7h-5zM703 296h5v7h-5zM716 216h5v7h-5zM716 232h5v7h-5zM716 248h5v7h-5zM716 264h5v7h-5zM716 280h5v7h-5zM756 280h5v7h-5zM769 248h5v7h-5zM782 232h5v7h-5zM782 248h5v7h-5zM795 216h5v7h-5zM795 232h5v7h-5zM795 248h5v7h-5zM795 264h5v7h-5zM831 286h5v7h-5zM831 302h5v7h-5zM844 270h5v7h-5zM857 286h5v7h-5zM870 270h5v7h-5zM870 302h5v7h-5zM906 263h5v7h-5zM906 279h5v7h-5zM906 295h5v7h-5zM919 247h5v7h-5zM919 263h5v7h-5zM932 247h5v7h-5zM932 263h5v7h-5zM932 295h5v7h-5zM932 311h5v7h-5zM967 268h5v7h-5zM967 284h5v7h-5zM967 300h5v7h-5zM980 236h5v7h-5zM980 300h5v7h-5zM993 236h5v7h-5zM993 252h5v7h-5zM993 284h5v7h-5zM1006 284h5v7h-5zM1006 300h5v7h-5zM1019 236h5v7h-5zM1019 252h5v7h-5z"/>
<path fill="#C9A468" opacity=".95" d="M-10 208h5v7h-5zM-10 224h5v7h-5zM-10 240h5v7h-5zM-10 288h5v7h-5zM16 224h5v7h-5zM16 256h5v7h-5zM16 272h5v7h-5zM16 288h5v7h-5zM29 256h5v7h-5zM29 272h5v7h-5zM55 224h5v7h-5zM90 256h5v7h-5zM103 224h5v7h-5zM103 240h5v7h-5zM103 304h5v7h-5zM129 224h5v7h-5zM129 240h5v7h-5zM181 199h5v7h-5zM194 247h5v7h-5zM194 263h5v7h-5zM207 295h5v7h-5zM264 277h5v7h-5zM277 261h5v7h-5zM277 277h5v7h-5zM277 309h5v7h-5zM290 229h5v7h-5zM303 197h5v7h-5zM341 257h5v7h-5zM341 273h5v7h-5zM354 209h5v7h-5zM354 257h5v7h-5zM354 273h5v7h-5zM354 305h5v7h-5zM367 273h5v7h-5zM367 305h5v7h-5zM380 193h5v7h-5zM421 277h5v7h-5zM460 261h5v7h-5zM493 276h5v7h-5zM506 308h5v7h-5zM519 260h5v7h-5zM519 308h5v7h-5zM572 242h5v7h-5zM572 290h5v7h-5zM572 306h5v7h-5zM585 242h5v7h-5zM598 274h5v7h-5zM598 290h5v7h-5zM633 247h5v7h-5zM646 263h5v7h-5zM690 264h5v7h-5zM703 264h5v7h-5zM756 264h5v7h-5zM756 296h5v7h-5zM769 296h5v7h-5zM782 264h5v7h-5zM795 280h5v7h-5zM795 296h5v7h-5zM831 270h5v7h-5zM844 286h5v7h-5zM870 254h5v7h-5zM870 286h5v7h-5zM980 252h5v7h-5zM980 268h5v7h-5zM980 284h5v7h-5zM993 300h5v7h-5zM1006 236h5v7h-5zM1006 268h5v7h-5zM1019 268h5v7h-5z"/>
<path class="k0" fill="#C9A468" d="M519 244h5v7h-5zM782 216h5v7h-5z"/>
<path class="k1" fill="#C9A468" d="M116 240h5v7h-5zM290 309h5v7h-5z"/>
<path class="k2" fill="#C9A468" d="M519 292h5v7h-5zM690 280h5v7h-5zM782 296h5v7h-5z"/>
<path class="k3" fill="#C9A468" d="M756 216h5v7h-5z"/>
<path class="k4" fill="#C9A468" d="M116 272h5v7h-5zM633 295h5v7h-5zM906 311h5v7h-5z"/>
<path class="k5" fill="#C9A468" d="M585 306h5v7h-5z"/>
<path class="k6" fill="#C9A468" d="M116 256h5v7h-5zM116 304h5v7h-5zM303 293h5v7h-5zM844 302h5v7h-5z"/>
<path class="k7" fill="#C9A468" d="M857 254h5v7h-5z"/>
<path class="k8" fill="#C9A468" d="M303 277h5v7h-5zM341 289h5v7h-5z"/>
<path class="k9" fill="#56AEC2" d="M55 240h5v7h-5z"/>
<path class="k10" fill="#56AEC2" d="M-10 256h5v7h-5z"/>
<path class="k11" fill="#56AEC2" d="M220 199h5v7h-5z"/>
<path class="k12" fill="#56AEC2" d="M769 264h5v7h-5zM782 280h5v7h-5z"/>
<path class="k13" fill="#56AEC2" d="M116 288h5v7h-5zM460 293h5v7h-5zM857 270h5v7h-5z"/>
<path class="k14" fill="#56AEC2" d="M380 209h5v7h-5z"/>
<path class="k15" fill="#56AEC2" d="M-10 304h5v7h-5z"/>
<path class="k16" fill="#56AEC2" d="M1019 284h5v7h-5z"/>
<path class="k17" fill="#C9A468" d="M290 245h5v7h-5z"/>
<path class="k18" fill="#C9A468" d="M277 245h5v7h-5z"/>
<path class="k19" fill="#C9A468" d="M716 296h5v7h-5z"/>
<path class="k20" fill="#C9A468" d="M572 258h5v7h-5z"/>
<path class="k21" fill="#C9A468" d="M194 295h5v7h-5z"/>
<path class="k22" fill="#C9A468" d="M55 208h5v7h-5z"/>
<path class="k23" fill="#C9A468" d="M532 308h5v7h-5z"/>
<path class="k24" fill="#C9A468" d="M341 305h5v7h-5zM831 254h5v7h-5z"/>
<path class="k25" fill="#56AEC2" d="M1019 300h5v7h-5z"/>
<path class="k26" fill="#56AEC2" d="M585 274h5v7h-5zM919 311h5v7h-5z"/>
<path class="k27" fill="#56AEC2" d="M598 242h5v7h-5zM769 232h5v7h-5zM919 279h5v7h-5z"/>
<path class="k28" fill="#56AEC2" d="M303 229h5v7h-5z"/>
<path class="k29" fill="#56AEC2" d="M116 224h5v7h-5z"/>
<path class="k30" fill="#56AEC2" d="M421 293h5v7h-5zM1006 252h5v7h-5z"/>
<path class="k31" fill="#56AEC2" d="M55 288h5v7h-5zM341 193h5v7h-5z"/>
<path class="k32" fill="#C9A468" d="M703 232h5v7h-5z"/>
<path class="k33" fill="#C9A468" d="M220 295h5v7h-5z"/>
<path class="k34" fill="#C9A468" d="M142 256h5v7h-5z"/>
<path class="k35" fill="#C9A468" d="M290 197h5v7h-5z"/>
<path class="k36" fill="#C9A468" d="M421 261h5v7h-5z"/>
<path class="k37" fill="#C9A468" d="M194 199h5v7h-5z"/>
<path class="k38" fill="#C9A468" d="M29 208h5v7h-5zM129 256h5v7h-5z"/>
<path class="k39" fill="#C9A468" d="M460 309h5v7h-5z"/>
<path class="k40" fill="#C9A468" d="M341 241h5v7h-5zM703 248h5v7h-5z"/>
<path class="k41" fill="#C9A468" d="M3 240h5v7h-5zM506 228h5v7h-5z"/>
<path class="k42" fill="#C9A468" d="M220 311h5v7h-5z"/>
<path class="k43" fill="#C9A468" d="M447 277h5v7h-5z"/>
<path class="k44" fill="#C9A468" d="M303 245h5v7h-5zM506 292h5v7h-5zM633 263h5v7h-5z"/>
<path class="k45" fill="#C9A468" d="M264 245h5v7h-5zM769 216h5v7h-5zM857 302h5v7h-5z"/>
<path class="k46" fill="#C9A468" d="M264 261h5v7h-5zM367 257h5v7h-5z"/>
<path class="k47" fill="#56AEC2" d="M447 261h5v7h-5z"/>
<path class="k48" fill="#56AEC2" d="M194 279h5v7h-5z"/>
<path class="k49" fill="#56AEC2" d="M277 197h5v7h-5z"/>
<path class="k50" fill="#56AEC2" d="M633 199h5v7h-5z"/>
<path class="k51" fill="#56AEC2" d="M207 215h5v7h-5z"/>
<path class="k52" fill="#56AEC2" d="M703 200h5v7h-5z"/>
<path class="k53" fill="#C9A468" d="M585 258h5v7h-5z"/>
<path class="k54" fill="#C9A468" d="M844 254h5v7h-5z"/>
<path class="k55" fill="#C9A468" d="M129 288h5v7h-5z"/>
<path class="k56" fill="#C9A468" d="M919 295h5v7h-5z"/>
<path class="k57" fill="#C9A468" d="M493 292h5v7h-5z"/>
<path class="k58" fill="#C9A468" d="M42 208h5v7h-5zM129 304h5v7h-5zM434 261h5v7h-5z"/>
<path class="k59" fill="#C9A468" d="M756 232h5v7h-5z"/>
<path class="k60" fill="#C9A468" d="M42 272h5v7h-5zM519 276h5v7h-5zM690 296h5v7h-5z"/>
<path class="k61" fill="#C9A468" d="M207 263h5v7h-5z"/>
<path class="k62" fill="#C9A468" d="M756 248h5v7h-5z"/>
<path class="k63" fill="#C9A468" d="M220 231h5v7h-5z"/>
<path class="k64" fill="#C9A468" d="M367 209h5v7h-5z"/>
<path class="k65" fill="#C9A468" d="M16 304h5v7h-5zM532 276h5v7h-5z"/>
<path class="k66" fill="#C9A468" d="M290 213h5v7h-5zM532 228h5v7h-5zM716 200h5v7h-5zM993 268h5v7h-5z"/>
<path class="k67" fill="#56AEC2" d="M103 256h5v7h-5z"/>
<path class="k68" fill="#56AEC2" d="M29 224h5v7h-5zM646 231h5v7h-5zM769 280h5v7h-5z"/>
<path class="k69" fill="#56AEC2" d="M633 231h5v7h-5z"/>
<path class="k70" fill="#56AEC2" d="M367 225h5v7h-5z"/>
<path class="k71" fill="#56AEC2" d="M55 256h5v7h-5zM532 260h5v7h-5zM906 247h5v7h-5z"/>
<path class="k72" fill="#56AEC2" d="M380 289h5v7h-5zM506 276h5v7h-5zM967 236h5v7h-5z"/>
<path class="k73" fill="#C9A468" d="M3 224h5v7h-5zM354 193h5v7h-5z"/>
<path class="k74" fill="#C9A468" d="M142 288h5v7h-5zM290 293h5v7h-5z"/>
<path class="k75" fill="#C9A468" d="M967 252h5v7h-5z"/>
<path class="k76" fill="#C9A468" d="M932 279h5v7h-5z"/>
<g opacity="0"><animate attributeName="opacity" values="0;1;1;0;0" keyTimes="0;0.01;0.44;0.45;1" begin="0.0s" dur="56s" repeatCount="indefinite"/><animateTransform attributeName="transform" type="translate" values="-70 108;1070 148;1070 148" keyTimes="0;0.45;1" begin="0.0s" dur="56s" repeatCount="indefinite"/><g transform="rotate(5)"><path d="M25 -2.4 L17 -9 L22 -9 L31 -2.8 Z" fill="#FFFFFF" opacity="0.55"/><path d="M23 2.4 L12 12 L18.5 12 L31 3.2 Z" fill="#FFFFFF" opacity="0.92"/><ellipse cx="19" cy="7" rx="4" ry="2.2" fill="#FFFFFF" opacity="0.92"/><path d="M3 -3.6 L0 -16 L5.5 -16 L12 -3.6 Z" fill="#FFFFFF"/><path d="M3 2.2 L-4 8 L2 8 L9.5 3.2 Z" fill="#FFFFFF" opacity="0.92"/><path d="M4 -4 L30 -4 Q40 -3.2 42 0 Q40 3.2 30 4 L4 4 Q0 3 0 0 Q0 -3 4 -4 Z" fill="#FFFFFF"/><path d="M8 -1 L34 -1" stroke="#7FC6D6" stroke-width="1.5" stroke-linecap="round"/><circle cx="2" cy="-16" r="1.5" fill="#7FC6D6"><animate attributeName="opacity" values="1;0.1;1" dur="1.1s" repeatCount="indefinite"/></circle><circle cx="14" cy="12" r="1.4" fill="#7FC6D6"><animate attributeName="opacity" values="0.1;1;0.1" dur="1.1s" repeatCount="indefinite"/></circle></g></g>
<g opacity="0"><animate attributeName="opacity" values="0;1;1;0;0" keyTimes="0;0.01;0.44;0.45;1" begin="28.0s" dur="56s" repeatCount="indefinite"/><animateTransform attributeName="transform" type="translate" values="1070 108;-70 148;-70 148" keyTimes="0;0.45;1" begin="28.0s" dur="56s" repeatCount="indefinite"/><g transform="scale(-1 1)"><g transform="rotate(5)"><path d="M25 -2.4 L17 -9 L22 -9 L31 -2.8 Z" fill="#FFFFFF" opacity="0.55"/><path d="M23 2.4 L12 12 L18.5 12 L31 3.2 Z" fill="#FFFFFF" opacity="0.92"/><ellipse cx="19" cy="7" rx="4" ry="2.2" fill="#FFFFFF" opacity="0.92"/><path d="M3 -3.6 L0 -16 L5.5 -16 L12 -3.6 Z" fill="#FFFFFF"/><path d="M3 2.2 L-4 8 L2 8 L9.5 3.2 Z" fill="#FFFFFF" opacity="0.92"/><path d="M4 -4 L30 -4 Q40 -3.2 42 0 Q40 3.2 30 4 L4 4 Q0 3 0 0 Q0 -3 4 -4 Z" fill="#FFFFFF"/><path d="M8 -1 L34 -1" stroke="#7FC6D6" stroke-width="1.5" stroke-linecap="round"/><circle cx="2" cy="-16" r="1.5" fill="#7FC6D6"><animate attributeName="opacity" values="1;0.1;1" dur="1.1s" repeatCount="indefinite"/></circle><circle cx="14" cy="12" r="1.4" fill="#7FC6D6"><animate attributeName="opacity" values="0.1;1;0.1" dur="1.1s" repeatCount="indefinite"/></circle></g></g></g>
<text class="ft" x="500" y="44" font-family="'Segoe UI', -apple-system, BlinkMacSystemFont, 'Helvetica Neue', Arial, sans-serif" font-size="25" font-weight="700" letter-spacing="0.3" fill="#E8EEF2" text-anchor="middle">To an artificial mind, all reality is virtual<animate attributeName="fill" values="#E8EEF2;#3E93A8;#C9A468;#56AEC2;#E8EEF2" calcMode="spline" keySplines="0.42 0 0.58 1;0.42 0 0.58 1;0.42 0 0.58 1;0.42 0 0.58 1" dur="18s" repeatCount="indefinite"/></text>
<rect x="0" y="325" width="1000" height="5" fill="url(#stdark)"/>
</g></svg>
